<svg version="1.1" xmlns="http://www.w3.org/2000/svg" xmlns:xlink="http://www.w3.org/1999/xlink" width="170.6300048828125" height="35.86000061035156"><defs></defs><g transform="translate(-87.5,18.540000915527344)"><rect fill="rgb(255,255,255)" stroke="none" x="0" y="0" width="170.6300048828125" height="35.86000061035156" fill-opacity="0" transform="translate(87.5,-18.540000915527344)"></rect><g transform="translate(87,19) rotate(0,0,0) translate(-87,-19) matrix(1,0,0,1,87,19)"><path fill="rgb(0,0,0)" fill-opacity="1" d="M8.48-36.59L24.21-36.59Q25.65-36.59 26.66-35.58Q27.67-34.56 27.67-33.15L27.67-33.15Q27.67-31.71 26.65-30.67Q25.62-29.63 24.21-29.63L24.21-29.63L17.52-29.63L17.52-24.14Q17.52-23.80 17.27-23.55Q17.03-23.31 16.69-23.31Q16.35-23.31 16.09-23.55Q15.83-23.80 15.83-24.14L15.83-24.14L15.83-30.49Q15.83-30.83 16.09-31.09Q16.35-31.34 16.69-31.34L16.69-31.34L24.21-31.34Q24.92-31.34 25.45-31.89Q25.99-32.44 25.99-33.15L25.99-33.15Q25.99-33.88 25.46-34.39Q24.94-34.91 24.21-34.91L24.21-34.91L8.48-34.91Q8.14-34.91 7.89-35.16Q7.63-35.42 7.63-35.76Q7.63-36.10 7.89-36.35Q8.14-36.59 8.48-36.59L8.48-36.59ZM16.09-20.21Q16.35-20.45 16.69-20.45Q17.03-20.45 17.27-20.21Q17.52-19.97 17.52-19.62L17.52-19.62L17.52-5.17Q17.52-3.73 16.52-2.72Q15.52-1.70 14.08-1.70L14.08-1.70Q12.66-1.70 11.63-2.73Q10.61-3.75 10.61-5.17L10.61-5.17L10.61-29.63L3.97-29.63Q2.55-29.63 1.53-30.67Q0.50-31.71 0.50-33.15Q0.50-34.59 1.51-35.59Q2.53-36.59 3.97-36.59L3.97-36.59Q4.31-36.59 4.57-36.33Q4.82-36.08 4.82-35.74Q4.82-35.40 4.57-35.15Q4.31-34.91 3.97-34.91L3.97-34.91Q3.21-34.91 2.71-34.41Q2.21-33.91 2.21-33.15Q2.21-32.39 2.72-31.87Q3.24-31.34 3.97-31.34L3.97-31.34L11.46-31.34Q11.80-31.34 12.06-31.09Q12.32-30.83 12.32-30.49L12.32-30.49L12.32-5.17Q12.32-4.44 12.83-3.91Q13.34-3.39 14.08-3.39L14.08-3.39Q14.83-3.39 15.33-3.90Q15.83-4.41 15.83-5.17L15.83-5.17L15.83-19.62Q15.83-19.97 16.09-20.21ZM39.56-18.92L39.56-18.92Q36.39-20.40 34.80-22.92L34.80-22.92Q33.58-24.85 33.58-27.27L33.58-27.27Q33.58-29.41 34.67-31.40Q35.75-33.39 37.73-34.86L37.73-34.86Q41.44-37.54 46.42-37.54L46.42-37.54Q48.11-37.54 49.67-37.21Q51.23-36.88 52.69-36.19Q54.14-35.49 54.98-35.02Q55.82-34.54 57.12-33.69L57.12-33.69L57.24-33.61Q58.36-32.83 58.63-31.51L58.63-31.51Q58.90-30.17 58.12-29.05L58.12-29.05Q57.43-27.95 56.09-27.63L56.09-27.63Q54.77-27.34 53.60-28.12L53.60-28.12Q51.45-29.56 49.83-30.29Q48.21-31.02 46.42-31.02L46.42-31.02Q43.59-31.02 41.61-29.56L41.61-29.56Q40.17-28.51 40.17-27.27L40.17-27.27Q40.17-26.70 40.37-26.39L40.37-26.39Q40.61-25.95 41.42-25.39L41.42-25.39Q43.20-24.14 46.94-23.46L46.94-23.46L46.96-23.46Q47.30-23.46 47.55-23.20Q47.79-22.94 47.79-22.60Q47.79-22.26 47.55-22.02Q47.30-21.77 46.96-21.77L46.96-21.77L46.86-21.77L46.69-21.77Q42.57-22.53 40.44-23.99L40.44-23.99Q39.39-24.75 38.93-25.48L38.93-25.48Q38.46-26.24 38.46-27.27L38.46-27.27Q38.46-29.34 40.61-30.93L40.61-30.93Q43.01-32.71 46.42-32.71L46.42-32.71Q48.52-32.71 50.33-31.92Q52.14-31.12 54.53-29.54L54.53-29.54Q55.12-29.15 55.73-29.29L55.73-29.29Q56.41-29.46 56.73-29.98L56.73-29.98Q57.09-30.51 56.97-31.17L56.97-31.17Q56.87-31.78 56.29-32.20L56.29-32.20L56.19-32.27Q54.94-33.08 54.19-33.52Q53.43-33.95 52.09-34.60Q50.75-35.25 49.33-35.55Q47.91-35.86 46.42-35.86L46.42-35.86Q42.03-35.86 38.73-33.49L38.73-33.49Q37.10-32.29 36.19-30.66Q35.29-29.02 35.29-27.27L35.29-27.27Q35.29-25.31 36.24-23.82L36.24-23.82Q37.59-21.70 40.30-20.43L40.30-20.43Q42.52-19.38 46.13-18.67L46.13-18.67L46.16-18.67Q46.18-18.67 46.23-18.66Q46.28-18.65 46.30-18.65L46.30-18.65Q50.82-17.82 53.11-16.30L53.11-16.30Q54.19-15.57 54.80-14.59L54.80-14.59Q55.33-13.72 55.33-12.64L55.33-12.64Q55.33-10.30 52.97-8.56L52.97-8.56Q50.35-6.64 46.52-6.64L46.52-6.64Q46.18-6.64 45.92-6.89Q45.67-7.15 45.67-7.49Q45.67-7.83 45.92-8.08Q46.18-8.32 46.52-8.32L46.52-8.32Q49.74-8.32 51.94-9.93L51.94-9.93Q53.65-11.20 53.65-12.64L53.65-12.64Q53.65-13.20 53.33-13.74L53.33-13.74Q52.94-14.37 52.19-14.89L52.19-14.89Q50.13-16.23 46.06-16.99L46.06-16.99L45.89-16.99Q42.08-17.72 39.56-18.92ZM58.95-17.13L58.95-17.13Q60.22-15.08 60.22-12.64L60.22-12.64Q60.22-10.32 59.06-8.22Q57.90-6.12 55.80-4.61L55.80-4.61Q51.92-1.75 46.52-1.75L46.52-1.75Q40.00-1.80 33.85-6.68L33.85-6.68Q32.80-7.54 32.65-8.91Q32.51-10.27 33.34-11.32L33.34-11.32Q34.22-12.37 35.58-12.51Q36.95-12.64 38.00-11.79L38.00-11.79Q38.95-11.01 40.20-10.27L40.20-10.27Q41.57-9.49 43.15-8.93L43.15-8.93Q43.47-8.83 43.64-8.52Q43.81-8.20 43.69-7.86Q43.57-7.51 43.25-7.37Q42.93-7.22 42.62-7.32L42.62-7.32Q40.83-7.93 39.34-8.81L39.34-8.81Q37.85-9.71 36.93-10.47L36.93-10.47Q36.41-10.88 35.74-10.83Q35.07-10.79 34.66-10.27L34.66-10.27Q34.27-9.76 34.35-9.08Q34.44-8.39 34.92-8.00L34.92-8.00Q40.61-3.49 46.52-3.44L46.52-3.44Q51.36-3.44 54.80-5.98L54.80-5.98Q56.58-7.27 57.56-9.00Q58.53-10.74 58.53-12.64L58.53-12.64Q58.53-14.64 57.53-16.23L57.53-16.23Q56.21-18.38 53.14-19.87L53.14-19.87Q51.89-20.48 50.04-21.02L50.04-21.02Q49.72-21.11 49.54-21.42Q49.35-21.72 49.45-22.06L49.45-22.06Q49.55-22.38 49.85-22.55Q50.16-22.72 50.50-22.63L50.50-22.63Q52.31-22.11 53.87-21.38L53.87-21.38Q57.39-19.67 58.95-17.13ZM69.01-3.39L75.55-3.39Q75.89-3.39 76.15-3.14Q76.40-2.90 76.40-2.56Q76.40-2.22 76.15-1.96Q75.89-1.70 75.55-1.70L75.55-1.70L68.84-1.70L68.76-1.70L68.69-1.70Q67.27-1.70 66.25-2.73Q65.22-3.75 65.22-5.17L65.22-5.17L65.22-23.82Q65.22-24.16 65.48-24.42Q65.74-24.68 66.08-24.68Q66.42-24.68 66.68-24.42Q66.93-24.16 66.93-23.82L66.93-23.82L66.93-5.17Q66.93-4.49 67.38-3.99Q67.83-3.49 68.49-3.41L68.49-3.41Q68.71-3.46 69.01-3.39L69.01-3.39ZM66.68-26.81Q66.42-26.56 66.08-26.56Q65.74-26.56 65.48-26.81Q65.22-27.07 65.22-27.41L65.22-27.41L65.22-33.15Q65.22-34.59 66.24-35.59Q67.25-36.59 68.69-36.59L68.69-36.59L84.19-36.59Q85.63-36.59 86.65-35.58Q87.66-34.56 87.66-33.15L87.66-33.15Q87.66-31.71 86.63-30.67Q85.61-29.63 84.19-29.63L84.19-29.63L79.92-29.63Q79.58-29.63 79.32-29.89Q79.07-30.15 79.07-30.49Q79.07-30.83 79.32-31.09Q79.58-31.34 79.92-31.34L79.92-31.34L84.19-31.34Q84.88-31.34 85.41-31.89Q85.95-32.44 85.95-33.15Q85.95-33.86 85.43-34.38Q84.90-34.91 84.19-34.91L84.19-34.91L68.69-34.91Q67.93-34.91 67.43-34.41Q66.93-33.91 66.93-33.15L66.93-33.15L66.93-27.41Q66.93-27.07 66.68-26.81ZM72.18-8.66L84.19-8.66Q85.61-8.66 86.63-7.62Q87.66-6.59 87.66-5.17Q87.66-3.75 86.63-2.73Q85.61-1.70 84.19-1.70L84.19-1.70L79.38-1.70Q79.04-1.70 78.80-1.96Q78.55-2.22 78.55-2.56Q78.55-2.90 78.80-3.14Q79.04-3.39 79.38-3.39L79.38-3.39L84.19-3.39Q84.88-3.39 85.41-3.93Q85.95-4.46 85.95-5.17Q85.95-5.88 85.41-6.43Q84.88-6.98 84.19-6.98L84.19-6.98L71.35-6.98Q71.01-6.98 70.75-7.22Q70.50-7.47 70.50-7.81L70.50-7.81L70.50-16.55Q70.50-16.89 70.75-17.13Q71.01-17.38 71.35-17.38L71.35-17.38L82.39-17.38Q83.12-17.38 83.63-17.91Q84.14-18.45 84.14-19.21L84.14-19.21Q84.14-19.92 83.62-20.44Q83.09-20.97 82.39-20.97L82.39-20.97L71.35-20.97Q71.01-20.97 70.75-21.21Q70.50-21.45 70.50-21.80L70.50-21.80L70.50-30.49Q70.50-30.83 70.75-31.09Q71.01-31.34 71.35-31.34L71.35-31.34L75.60-31.34Q75.94-31.34 76.20-31.09Q76.45-30.83 76.45-30.49Q76.45-30.15 76.20-29.89Q75.94-29.63 75.60-29.63L75.60-29.63L72.18-29.63L72.18-22.65L82.39-22.65Q83.80-22.65 84.83-21.64Q85.85-20.62 85.85-19.21L85.85-19.21Q85.85-17.77 84.83-16.73Q83.80-15.69 82.39-15.69L82.39-15.69L72.18-15.69L72.18-8.66ZM98.15-12.97Q98.40-13.23 98.74-13.23Q99.08-13.23 99.33-12.97Q99.57-12.71 99.57-12.37L99.57-12.37L99.57-5.17Q99.57-3.73 98.55-2.72Q97.52-1.70 96.08-1.70Q94.64-1.70 93.63-2.72Q92.62-3.73 92.62-5.17L92.62-5.17L92.62-22.85Q92.62-23.19 92.87-23.44Q93.13-23.70 93.47-23.70Q93.81-23.70 94.07-23.44Q94.32-23.19 94.32-22.85L94.32-22.85L94.32-5.17Q94.32-4.41 94.82-3.90Q95.33-3.39 96.08-3.39Q96.84-3.39 97.36-3.91Q97.89-4.44 97.89-5.17L97.89-5.17L97.89-12.37Q97.89-12.71 98.15-12.97ZM93.63-35.59Q94.64-36.59 96.08-36.59Q97.52-36.59 98.55-35.58Q99.57-34.56 99.57-33.15L99.57-33.15L99.57-16.35Q99.57-16.01 99.33-15.75Q99.08-15.50 98.74-15.50Q98.40-15.50 98.15-15.75Q97.89-16.01 97.89-16.35L97.89-16.35L97.89-33.15Q97.89-33.88 97.36-34.39Q96.84-34.91 96.08-34.91Q95.33-34.91 94.82-34.41Q94.32-33.91 94.32-33.15L94.32-33.15L94.32-26.34Q94.32-26.00 94.07-25.74Q93.81-25.48 93.47-25.48Q93.13-25.48 92.87-25.74Q92.62-26.00 92.62-26.34L92.62-26.34L92.62-33.15Q92.62-34.59 93.63-35.59ZM105.84-9.15Q107.12-10.44 108.92-10.44Q110.73-10.44 112.02-9.15Q113.32-7.86 113.32-6.05L113.32-6.05Q113.32-5.29 113.07-4.63L113.07-4.63Q112.95-4.29 112.63-4.15Q112.32-4.00 112-4.10Q111.68-4.19 111.52-4.52Q111.37-4.85 111.49-5.19L111.49-5.19Q111.63-5.61 111.63-6.05L111.63-6.05Q111.63-7.15 110.83-7.95Q110.02-8.76 108.92-8.76Q107.83-8.76 107.04-7.97Q106.26-7.17 106.26-6.05L106.26-6.05Q106.26-4.95 107.04-4.17Q107.83-3.39 108.92-3.39L108.92-3.39Q109.46-3.39 109.97-3.61L109.97-3.61Q110.32-3.73 110.65-3.60Q110.97-3.46 111.10-3.14Q111.22-2.83 111.10-2.50Q110.97-2.17 110.66-2.05L110.66-2.05Q109.85-1.68 108.92-1.68L108.92-1.68Q107.14-1.68 105.85-2.96Q104.55-4.24 104.55-6.05Q104.55-7.86 105.84-9.15ZM139.69-36.59L139.69-36.59Q141.13-36.59 142.14-35.58Q143.15-34.56 143.15-33.15L143.15-33.15L143.15-14.30Q143.15-10.86 141.37-7.88Q139.59-4.90 136.51-3.24L136.51-3.24Q135.78-2.85 135.41-2.70L135.41-2.70Q135.27-2.63 135.07-2.63L135.07-2.63Q134.53-2.63 134.29-3.14L134.29-3.14Q134.17-3.49 134.30-3.82Q134.44-4.15 134.75-4.27L134.75-4.27Q135.39-4.56 135.71-4.73L135.71-4.73Q138.37-6.17 139.91-8.73Q141.44-11.30 141.44-14.30L141.44-14.30L141.44-33.15Q141.44-33.88 140.93-34.39Q140.42-34.91 139.69-34.91L139.69-34.91Q138.93-34.91 138.40-34.39Q137.88-33.88 137.88-33.15L137.88-33.15L137.88-26.83Q137.88-26.48 137.62-26.23Q137.37-25.97 137.02-25.97Q136.68-25.97 136.44-26.23Q136.19-26.48 136.19-26.83L136.19-26.83L136.19-33.15Q136.19-34.59 137.21-35.59Q138.22-36.59 139.69-36.59ZM130.48-3.39L130.48-3.39Q130.82-3.39 131.08-3.14Q131.34-2.90 131.34-2.56Q131.34-2.22 131.08-1.96Q130.82-1.70 130.48-1.70L130.48-1.70Q126.36-1.70 123.06-4.11Q119.76-6.51 118.49-10.44L118.49-10.44Q118.03-11.86 118.71-13.15L118.71-13.15Q119.35-14.40 120.72-14.79L120.72-14.79Q122.13-15.25 123.40-14.59L123.40-14.59Q124.67-13.96 125.09-12.57L125.09-12.57Q125.65-10.81 127.14-9.74Q128.63-8.66 130.48-8.66L130.48-8.66Q132.85-8.66 134.52-10.31Q136.19-11.96 136.19-14.30L136.19-14.30L136.19-23.87Q136.19-24.21 136.44-24.47Q136.68-24.73 137.02-24.73Q137.37-24.73 137.62-24.47Q137.88-24.21 137.88-23.87L137.88-23.87L137.88-14.30Q137.88-11.27 135.71-9.13Q133.53-6.98 130.48-6.98L130.48-6.98Q128.09-6.98 126.16-8.37Q124.23-9.76 123.47-12.06L123.47-12.06Q123.25-12.74 122.62-13.08Q121.99-13.42 121.23-13.18L121.23-13.18Q120.57-12.98 120.20-12.35L120.20-12.35Q119.86-11.71 120.11-10.98L120.11-10.98Q121.18-7.59 124.05-5.49Q126.92-3.39 130.48-3.39ZM156.63-29.63L156.63-29.63L155.09-29.63L155.09-21.55L160.10-21.55Q161.78-21.55 162.95-22.71Q164.12-23.87 164.17-25.56L164.17-25.56Q164.12-27.27 162.95-28.45Q161.78-29.63 160.10-29.63L160.10-29.63Q159.75-29.63 159.50-29.89Q159.24-30.15 159.24-30.49Q159.24-30.83 159.50-31.09Q159.75-31.34 160.10-31.34L160.10-31.34Q162.46-31.34 164.14-29.66Q165.81-27.97 165.86-25.56L165.86-25.56Q165.83-23.16 164.16-21.52Q162.49-19.87 160.10-19.87L160.10-19.87L154.26-19.87Q153.92-19.87 153.66-20.12Q153.41-20.38 153.41-20.72L153.41-20.72L153.41-30.49Q153.41-30.83 153.66-31.09Q153.92-31.34 154.26-31.34L154.26-31.34L156.63-31.34Q156.97-31.34 157.23-31.09Q157.48-30.83 157.48-30.49Q157.48-30.15 157.23-29.89Q156.97-29.63 156.63-29.63ZM166.35-18.67L166.35-18.67Q166.61-18.92 166.96-18.89Q167.30-18.87 167.54-18.60Q167.79-18.33 167.76-17.99Q167.74-17.65 167.47-17.40L167.47-17.40Q164.32-14.59 160.10-14.59L160.10-14.59L155.09-14.59L155.09-5.17Q155.09-3.73 154.07-2.72Q153.04-1.70 151.60-1.70L151.60-1.70Q150.18-1.70 149.16-2.73Q148.13-3.75 148.13-5.17L148.13-5.17L148.13-17.43Q148.13-17.77 148.39-18.01Q148.65-18.26 148.99-18.26Q149.33-18.26 149.59-18.01Q149.84-17.77 149.84-17.43L149.84-17.43L149.84-5.17Q149.84-4.46 150.37-3.93Q150.89-3.39 151.60-3.39L151.60-3.39Q152.36-3.39 152.88-3.91Q153.41-4.44 153.41-5.17L153.41-5.17L153.41-15.45Q153.41-15.79 153.66-16.05Q153.92-16.30 154.26-16.30L154.26-16.30L160.10-16.30Q163.71-16.30 166.35-18.67ZM151.60-36.59L160.10-36.59Q163.07-36.59 165.63-35.11Q168.18-33.64 169.65-31.09Q171.13-28.53 171.13-25.56L171.13-25.56Q171.13-23.24 170.23-21.21L170.23-21.21Q170.08-20.87 169.76-20.75Q169.45-20.62 169.10-20.77Q168.76-20.92 168.64-21.23Q168.52-21.55 168.67-21.89L168.67-21.89Q169.45-23.65 169.45-25.56L169.45-25.56Q169.45-29.41 166.70-32.16Q163.95-34.91 160.10-34.91L160.10-34.91L151.60-34.91Q150.87-34.91 150.35-34.39Q149.84-33.88 149.84-33.15L149.84-33.15L149.84-20.72Q149.84-20.38 149.59-20.12Q149.33-19.87 148.99-19.87Q148.65-19.87 148.39-20.12Q148.13-20.38 148.13-20.72L148.13-20.72L148.13-33.15Q148.13-34.56 149.15-35.58Q150.16-36.59 151.60-36.59L151.60-36.59Z"></path></g></g></svg>